<svg width="37" height="36" viewBox="0 0 37 36" fill="none" xmlns="http://www.w3.org/2000/svg">
<path d="M12.7818 35.3182L9.58636 29.9364L3.53182 28.5909L4.12045 22.3682L0 17.6591L4.12045 12.95L3.53182 6.72727L9.58636 5.38182L12.7818 0L18.5 2.43864L24.2182 0L27.4136 5.38182L33.4682 6.72727L32.8795 12.95L37 17.6591L32.8795 22.3682L33.4682 28.5909L27.4136 29.9364L24.2182 35.3182L18.5 32.8795L12.7818 35.3182ZM14.2114 31.0295L18.5 29.1795L22.8727 31.0295L25.2273 26.9932L29.8523 25.9L29.4318 21.1909L32.5432 17.6591L29.4318 14.0432L29.8523 9.33409L25.2273 8.325L22.7886 4.28864L18.5 6.13864L14.1273 4.28864L11.7727 8.325L7.14773 9.33409L7.56818 14.0432L4.45682 17.6591L7.56818 21.1909L7.14773 25.9841L11.7727 26.9932L14.2114 31.0295ZM16.7341 23.6295L26.2364 14.1273L23.8818 11.6886L16.7341 18.8364L13.1182 15.3045L10.7636 17.6591L16.7341 23.6295Z" fill="#5C402B"/>
</svg>
