<svg width="46" height="47" viewBox="0 0 46 47" fill="none" xmlns="http://www.w3.org/2000/svg">
<path d="M15.2002 0.699951H0V15.8996H3.80019V4.49957H15.2002V0.699951Z" fill="#5C402B"/>
<path d="M45.6006 15.8996V0.699951H30.4004V4.49957H41.8004V15.8996H45.6006Z" fill="#5C402B"/>
<path d="M30.4004 46.2999H45.6006V31.0997H41.8004V42.4997H30.4004V46.2999Z" fill="#5C402B"/>
<path d="M0 31.0997V46.2999H15.2002V42.4997H3.80019V31.0997H0Z" fill="#5C402B"/>
<path d="M22.7995 8.30029C18.6989 8.30029 15.8934 11.6103 16.5666 15.659L17.5852 21.7888C17.9939 24.2158 20.3388 26.2051 22.799 26.2051C25.2608 26.2051 27.6046 24.2158 28.011 21.7888L29.0319 15.659C29.7091 11.6103 26.9035 8.30029 22.7995 8.30029Z" fill="#5C402B"/>
<path d="M35.5969 29.0312L28.4553 26.6503C26.9562 28.1181 24.939 29.0552 22.7998 29.0552C20.6583 29.0552 18.6416 28.1181 17.1425 26.6503L10.0027 29.0312C8.67976 29.4724 7.59961 30.9738 7.59961 32.3674V38.7001H38V32.3674C38 30.9738 36.9198 29.473 35.5969 29.0312Z" fill="#5C402B"/>
</svg>
