<svg width="43" height="43" viewBox="0 0 43 43" fill="none" xmlns="http://www.w3.org/2000/svg">
<path d="M19.708 30.4585H23.2913V23.2918H30.458V19.7085H23.2913V12.5418H19.708V19.7085H12.5413V23.2918H19.708V30.4585ZM21.4997 39.4168C19.0212 39.4168 16.692 38.9465 14.5122 38.0059C12.3323 37.0653 10.4361 35.7887 8.82363 34.1762C7.21113 32.5637 5.93457 30.6675 4.99395 28.4877C4.05332 26.3078 3.58301 23.9786 3.58301 21.5002C3.58301 19.0217 4.05332 16.6925 4.99395 14.5127C5.93457 12.3328 7.21113 10.4366 8.82363 8.82412C10.4361 7.21162 12.3323 5.93506 14.5122 4.99443C16.692 4.05381 19.0212 3.5835 21.4997 3.5835C23.9781 3.5835 26.3073 4.05381 28.4872 4.99443C30.667 5.93506 32.5632 7.21162 34.1757 8.82412C35.7882 10.4366 37.0648 12.3328 38.0054 14.5127C38.946 16.6925 39.4163 19.0217 39.4163 21.5002C39.4163 23.9786 38.946 26.3078 38.0054 28.4877C37.0648 30.6675 35.7882 32.5637 34.1757 34.1762C32.5632 35.7887 30.667 37.0653 28.4872 38.0059C26.3073 38.9465 23.9781 39.4168 21.4997 39.4168ZM21.4997 35.8335C25.5011 35.8335 28.8903 34.445 31.6674 31.6679C34.4445 28.8908 35.833 25.5016 35.833 21.5002C35.833 17.4988 34.4445 14.1095 31.6674 11.3325C28.8903 8.55537 25.5011 7.16683 21.4997 7.16683C17.4983 7.16683 14.109 8.55537 11.332 11.3325C8.55488 14.1095 7.16634 17.4988 7.16634 21.5002C7.16634 25.5016 8.55488 28.8908 11.332 31.6679C14.109 34.445 17.4983 35.8335 21.4997 35.8335Z" fill="#5C402B"/>
</svg>
